<svg width="88" height="82" viewBox="0 0 88 82" fill="none" xmlns="http://www.w3.org/2000/svg">
<circle cx="63.7194" cy="36.5" r="22.5" fill="#53C1FF"/>
<path d="M9.61697 65.1925C9.69101 65.5047 9.82744 65.7987 10.0181 66.0568C10.2087 66.3149 10.4495 66.5317 10.7261 66.6943C11.0028 66.8569 11.3094 66.9618 11.6276 67.0028C11.9459 67.0438 12.2691 67.02 12.5779 66.9328C26.7356 63.0238 41.6877 63.0224 55.8462 66.9287C56.1549 67.0158 56.478 67.0396 56.7961 66.9986C57.1142 66.9576 57.4207 66.8527 57.6973 66.6902C57.9738 66.5277 58.2146 66.311 58.4052 66.0531C58.5958 65.7951 58.7323 65.5013 58.8064 65.1892L66.3734 33.0326C66.4747 32.6022 66.4538 32.1519 66.313 31.7327C66.1723 31.3135 65.9173 30.9418 65.5767 30.6597C65.2361 30.3776 64.8236 30.1961 64.3855 30.1358C63.9473 30.0755 63.5011 30.1387 63.097 30.3183L48.0799 36.9926C47.5377 37.2336 46.9248 37.2629 46.3621 37.0746C45.7993 36.8864 45.3274 36.4944 45.0392 35.9757L36.2955 20.237C36.0898 19.8668 35.7889 19.5583 35.4238 19.3435C35.0588 19.1287 34.643 19.0154 34.2194 19.0154C33.7959 19.0154 33.38 19.1287 33.015 19.3435C32.6499 19.5583 32.349 19.8668 32.1433 20.237L23.3996 35.9757C23.1114 36.4944 22.6395 36.8864 22.0768 37.0746C21.514 37.2628 20.9012 37.2336 20.3589 36.9926L5.33958 30.3173C4.93553 30.1377 4.48937 30.0745 4.05134 30.1348C3.6133 30.195 3.20079 30.3764 2.86023 30.6584C2.51968 30.9404 2.26461 31.3119 2.12375 31.731C1.98288 32.1501 1.96182 32.6002 2.06292 33.0307L9.61697 65.1925Z" stroke="black" stroke-width="2" stroke-linecap="round" stroke-linejoin="round"/>
</svg>
