<svg width="88" height="82" viewBox="0 0 88 82" fill="none" xmlns="http://www.w3.org/2000/svg">
<circle cx="45.7969" cy="27.5" r="22.5" fill="#FFBA53"/>
<path d="M46.6953 58.3984C51.6098 58.3984 55.5938 54.4145 55.5938 49.5C55.5938 44.5855 51.6098 40.6016 46.6953 40.6016C41.7808 40.6016 37.7969 44.5855 37.7969 49.5C37.7969 54.4145 41.7808 58.3984 46.6953 58.3984Z" stroke="black" stroke-width="2" stroke-linecap="round" stroke-linejoin="round"/>
<path d="M37.7969 40.6016V22.8049H28.8984C26.5384 22.8049 24.2751 23.7424 22.6063 25.4112C20.9375 27.08 20 29.3434 20 31.7034C20 34.0634 20.9375 36.3267 22.6063 37.9955C24.2751 39.6643 26.5384 40.6018 28.8984 40.6018L37.7969 40.6016Z" stroke="black" stroke-width="2" stroke-linecap="round" stroke-linejoin="round"/>
<path d="M37.7969 58.3982V40.6016H28.8984C26.5384 40.6016 24.2751 41.5391 22.6063 43.2079C20.9375 44.8766 20 47.14 20 49.5C20 51.86 20.9375 54.1234 22.6063 55.7921C24.2751 57.4609 26.5384 58.3984 28.8984 58.3984L37.7969 58.3982Z" stroke="black" stroke-width="2" stroke-linecap="round" stroke-linejoin="round"/>
<path d="M37.7969 40.6016V22.8049H46.6953C49.0553 22.8049 51.3187 23.7424 52.9875 25.4112C54.6562 27.08 55.5938 29.3434 55.5938 31.7034C55.5938 34.0634 54.6562 36.3267 52.9875 37.9955C51.3187 39.6643 49.0553 40.6018 46.6953 40.6018L37.7969 40.6016Z" stroke="black" stroke-width="2" stroke-linecap="round" stroke-linejoin="round"/>
<path d="M37.7969 58.3982V67.2967C37.7969 69.0567 37.275 70.7771 36.2973 72.2405C35.3195 73.7038 33.9298 74.8444 32.3038 75.5179C30.6778 76.1914 28.8886 76.3677 27.1625 76.0243C25.4364 75.681 23.8508 74.8335 22.6063 73.5891C21.3619 72.3446 20.5144 70.759 20.171 69.0329C19.8276 67.3068 20.0038 65.5176 20.6773 63.8916C21.3508 62.2656 22.4914 60.8759 23.9547 59.8981C25.4181 58.9203 27.1385 58.3984 28.8984 58.3984L37.7969 58.3982Z" stroke="black" stroke-width="2" stroke-linecap="round" stroke-linejoin="round"/>
</svg>
