<svg width="88" height="82" viewBox="0 0 88 82" fill="none" xmlns="http://www.w3.org/2000/svg">
<circle cx="26.5" cy="32.5" r="22.5" fill="#7553FF"/>
<path d="M48.3095 59.6237L63.2826 69.11C65.1965 70.3226 67.5728 68.5192 67.0048 66.285L62.6788 49.2674C62.557 48.7935 62.5714 48.2947 62.7204 47.8286C62.8694 47.3624 63.147 46.9478 63.5212 46.6324L76.9481 35.457C78.7123 33.9886 77.8017 31.0607 75.535 30.9136L58.0004 29.7756C57.5281 29.7418 57.0752 29.5746 56.6942 29.2934C56.3133 29.0122 56.0201 28.6285 55.8487 28.1871L49.3091 11.7186C49.1313 11.25 48.8152 10.8467 48.4028 10.5621C47.9904 10.2774 47.5011 10.125 47 10.125C46.4989 10.125 46.0097 10.2774 45.5972 10.5621C45.1848 10.8467 44.8687 11.25 44.691 11.7186L38.1513 28.1871C37.98 28.6285 37.6867 29.0122 37.3058 29.2934C36.9249 29.5746 36.4719 29.7418 35.9996 29.7756L18.465 30.9136C16.1983 31.0607 15.2877 33.9886 17.052 35.457L30.4788 46.6324C30.853 46.9478 31.1306 47.3624 31.2796 47.8286C31.4286 48.2947 31.443 48.7935 31.3212 49.2674L27.3093 65.0494C26.6278 67.7303 29.4793 69.8945 31.776 68.4394L45.6905 59.6237C46.0818 59.3746 46.5361 59.2423 47 59.2423C47.4639 59.2423 47.9182 59.3746 48.3095 59.6237V59.6237Z" stroke="black" stroke-width="2" stroke-linecap="round" stroke-linejoin="round"/>
</svg>
