<svg width="88" height="82" viewBox="0 0 88 82" fill="none" xmlns="http://www.w3.org/2000/svg">
<circle cx="58.0001" cy="29.5" r="22.5" fill="#FF5353"/>
<path d="M35.5001 47V18.5" stroke="black" stroke-width="2" stroke-linecap="round" stroke-linejoin="round"/>
<path d="M60.1818 32.75L10.8184 61.25" stroke="black" stroke-width="2" stroke-linecap="round" stroke-linejoin="round"/>
<path d="M7.47525 52.2103C6.2413 45.5324 7.42852 38.6334 10.8237 32.7521C14.2189 26.8709 19.5996 22.3927 25.9996 20.1218V41.5153L7.47525 52.2103Z" stroke="black" stroke-width="2" stroke-linecap="round" stroke-linejoin="round"/>
<path d="M35.5001 18.5C40.4933 18.5009 45.3987 19.8137 49.725 22.3068C54.0513 24.8 57.6466 28.386 60.151 32.7058C62.6554 37.0256 63.9808 41.9276 63.9947 46.9208C64.0086 51.9141 62.7104 56.8233 60.23 61.157C57.7497 65.4906 54.1743 69.0966 49.862 71.6137C45.5496 74.1309 40.6516 75.4709 35.6584 75.4995C30.6653 75.5282 25.7522 74.2445 21.4112 71.777C17.0702 69.3096 13.4537 65.7449 10.9238 61.44" stroke="black" stroke-width="2" stroke-linecap="round" stroke-linejoin="round"/>
</svg>
